<mxfile host="app.diagrams.net" agent="Mozilla/5.0 (Windows NT 10.0; Win64; x64) AppleWebKit/537.36 (KHTML, like Gecko) Chrome/118.0.0.0 Safari/537.36" version="24.7.16">
  <diagram id="C5RBs43oDa-KdzZeNtuy" name="Page-1">
    <mxGraphModel dx="1434" dy="782" grid="1" gridSize="10" guides="1" tooltips="1" connect="1" arrows="1" fold="1" page="1" pageScale="1" pageWidth="827" pageHeight="1169" math="0" shadow="0">
      <root>
        <mxCell id="WIyWlLk6GJQsqaUBKTNV-0" />
        <mxCell id="WIyWlLk6GJQsqaUBKTNV-1" parent="WIyWlLk6GJQsqaUBKTNV-0" />
        <mxCell id="1Xu9Szxm8MycP8YEGu0O-0" value="&lt;div&gt;預約管理頁面&lt;/div&gt;" style="text;html=1;align=center;verticalAlign=middle;resizable=0;points=[];autosize=1;strokeColor=none;fillColor=none;" vertex="1" parent="WIyWlLk6GJQsqaUBKTNV-1">
          <mxGeometry x="170" y="38" width="100" height="30" as="geometry" />
        </mxCell>
        <mxCell id="1Xu9Szxm8MycP8YEGu0O-7" value="" style="rounded=0;html=1;jettySize=auto;orthogonalLoop=1;fontSize=11;endArrow=block;endFill=0;endSize=8;strokeWidth=1;shadow=0;labelBackgroundColor=none;edgeStyle=orthogonalEdgeStyle;" edge="1" parent="WIyWlLk6GJQsqaUBKTNV-1" source="1Xu9Szxm8MycP8YEGu0O-8" target="1Xu9Szxm8MycP8YEGu0O-11">
          <mxGeometry relative="1" as="geometry" />
        </mxCell>
        <mxCell id="1Xu9Szxm8MycP8YEGu0O-8" value="&lt;div&gt;管理員登入系統&lt;/div&gt;" style="rounded=1;whiteSpace=wrap;html=1;fontSize=12;glass=0;strokeWidth=1;shadow=0;" vertex="1" parent="WIyWlLk6GJQsqaUBKTNV-1">
          <mxGeometry x="160" y="90" width="120" height="40" as="geometry" />
        </mxCell>
        <mxCell id="1Xu9Szxm8MycP8YEGu0O-9" value="&lt;div&gt;如果已登入&lt;/div&gt;" style="rounded=0;html=1;jettySize=auto;orthogonalLoop=1;fontSize=11;endArrow=block;endFill=0;endSize=8;strokeWidth=1;shadow=0;labelBackgroundColor=none;edgeStyle=orthogonalEdgeStyle;exitX=0.5;exitY=1;exitDx=0;exitDy=0;entryX=0.5;entryY=0;entryDx=0;entryDy=0;" edge="1" parent="WIyWlLk6GJQsqaUBKTNV-1" source="1Xu9Szxm8MycP8YEGu0O-11" target="1Xu9Szxm8MycP8YEGu0O-13">
          <mxGeometry y="40" relative="1" as="geometry">
            <mxPoint as="offset" />
            <mxPoint x="220" y="340" as="targetPoint" />
            <mxPoint x="230" y="320" as="sourcePoint" />
          </mxGeometry>
        </mxCell>
        <mxCell id="1Xu9Szxm8MycP8YEGu0O-10" value="&lt;div&gt;如果未登入&lt;/div&gt;" style="edgeStyle=orthogonalEdgeStyle;rounded=0;html=1;jettySize=auto;orthogonalLoop=1;fontSize=11;endArrow=block;endFill=0;endSize=8;strokeWidth=1;shadow=0;labelBackgroundColor=none;" edge="1" parent="WIyWlLk6GJQsqaUBKTNV-1" source="1Xu9Szxm8MycP8YEGu0O-11" target="1Xu9Szxm8MycP8YEGu0O-12">
          <mxGeometry y="10" relative="1" as="geometry">
            <mxPoint as="offset" />
          </mxGeometry>
        </mxCell>
        <mxCell id="1Xu9Szxm8MycP8YEGu0O-11" value="&lt;div&gt;檢查管理員是否登入&lt;/div&gt;" style="rhombus;whiteSpace=wrap;html=1;shadow=0;fontFamily=Helvetica;fontSize=12;align=center;strokeWidth=1;spacing=6;spacingTop=-4;" vertex="1" parent="WIyWlLk6GJQsqaUBKTNV-1">
          <mxGeometry x="160" y="170" width="120" height="100" as="geometry" />
        </mxCell>
        <mxCell id="1Xu9Szxm8MycP8YEGu0O-12" value="&lt;div&gt;提示「請先登入」並跳轉到登入頁面&lt;/div&gt;" style="rounded=1;whiteSpace=wrap;html=1;fontSize=12;glass=0;strokeWidth=1;shadow=0;" vertex="1" parent="WIyWlLk6GJQsqaUBKTNV-1">
          <mxGeometry x="390" y="200" width="210" height="40" as="geometry" />
        </mxCell>
        <mxCell id="1Xu9Szxm8MycP8YEGu0O-13" value="&lt;div&gt;管理員查看所有預約(&lt;span style=&quot;background-color: initial;&quot;&gt;可更新或刪除預約&lt;/span&gt;&lt;/div&gt;&lt;div&gt;)&lt;/div&gt;" style="rounded=1;whiteSpace=wrap;html=1;" vertex="1" parent="WIyWlLk6GJQsqaUBKTNV-1">
          <mxGeometry x="160" y="350" width="120" height="60" as="geometry" />
        </mxCell>
      </root>
    </mxGraphModel>
  </diagram>
</mxfile>
